<svg width="56.000000" height="56.000000" viewBox="0 0 56 56" fill="none" xmlns="http://www.w3.org/2000/svg" xmlns:xlink="http://www.w3.org/1999/xlink">
	<path d="M38.793 47.6577C38.7227 47.2334 38.6875 46.7983 38.6875 46.3545C38.6875 41.918 42.293 38.3145 46.7305 38.3145C47.0723 38.3145 47.4082 38.3359 47.7383 38.377C49.3516 35.269 50.2637 31.7397 50.2637 28C50.2637 15.5376 40.1348 5.41406 27.666 5.41406C15.1992 5.41406 5.07031 15.5376 5.07031 28C5.07031 40.4624 15.1992 50.5859 27.666 50.5859C31.7109 50.5859 35.5078 49.5215 38.793 47.6577ZM44.9277 28C44.9277 37.5146 37.1953 45.2437 27.6758 45.2437C18.1582 45.2437 10.4258 37.5146 10.4258 28C10.4258 18.4854 18.1582 10.7563 27.6758 10.7563C37.1953 10.7563 44.9277 18.4854 44.9277 28Z" fill-rule="evenodd" clip-rule="evenodd" fill="#0D3CFB" fill-opacity="1.000000"/>
	<path d="M15.4238 23.4448L24.2598 18.0303C24.834 17.6782 25.5078 18.0933 25.5215 18.8071L25.6152 24.0547C25.623 24.438 25.4277 24.8027 25.1191 24.9878L18.1543 29.1479C17.7305 29.4004 17.2246 29.2466 17.0039 28.7993L15.0371 24.8062C14.8047 24.3335 14.9785 23.7168 15.4238 23.4448Z" fill-rule="evenodd" fill="#0D3CFB"/>
	<path d="M15.4941 32.4502L24.3223 37.8643C24.8984 38.2173 25.5742 37.7988 25.584 37.082L25.6543 31.9106C25.6602 31.5293 25.4648 31.167 25.1562 30.9824L18.1914 26.8169C17.7695 26.564 17.2617 26.7178 17.043 27.165L15.1094 31.0889C14.877 31.561 15.0508 32.1782 15.4941 32.4502Z" fill-rule="evenodd" fill="#0D3CFB"/>
	<rect x="15.011719" y="23.500488" rx="1.012922" width="5.216001" height="9.040271" fill="#0D3CFB"/>
	<path d="M39.4121 23.4448L30.5762 18.0303C30.002 17.6782 29.3281 18.0933 29.3145 18.8071L29.2207 24.0547C29.2129 24.438 29.4082 24.8027 29.7168 24.9878L36.6816 29.1479C37.1055 29.4004 37.6113 29.2466 37.832 28.7993L39.7988 24.8062C40.0312 24.3335 39.8574 23.7168 39.4121 23.4448Z" fill-rule="evenodd" fill="#0D3CFB"/>
	<path d="M39.3418 32.4497L30.5137 37.8638C29.9375 38.2168 29.2617 37.7983 29.252 37.0815L29.1816 31.9102C29.1758 31.5288 29.3711 31.1665 29.6797 30.9819L36.6445 26.8164C37.0664 26.5635 37.5742 26.7173 37.793 27.1646L39.7266 31.0884C39.959 31.5605 39.7852 32.1777 39.3418 32.4497Z" fill-rule="evenodd" fill="#0D3CFB"/>
	<rect rx="1.012922" width="5.216001" height="9.040271" transform="matrix(-1 0 0 1 23385.8 4468.5)" fill="#0D3CFB"/>
	<ellipse cx="45.939453" cy="45.613770" rx="4.974415" ry="4.972080" fill="#E10602"/>
	<defs/>
</svg>
