<svg width="56" height="56" viewBox="0 0 56 56" fill="none" xmlns="http://www.w3.org/2000/svg">
<path d="M33.5313 19.9794C36.2552 20.6747 39.2247 18.2481 40.1624 14.5564C41.382 9.75335 37.5836 6.78215 36.9306 6.6174C34.2067 5.92207 31.2372 8.34873 30.2995 12.0404C29.3589 15.7293 30.8046 19.2841 33.5313 19.9794Z" fill="#1976D2"/>
<path d="M22.552 19.3427C25.2787 19.3427 27.489 16.2859 27.489 12.5151C27.489 8.74433 25.2787 5.6875 22.552 5.6875C19.8253 5.6875 17.6149 8.74433 17.6149 12.5151C17.6149 16.2859 19.8253 19.3427 22.552 19.3427Z" fill="#1976D2"/>
<path d="M43.3161 19.0551C40.4499 19.097 38.1753 21.8252 38.2395 26.0503C38.3009 30.2753 40.6731 32.1993 43.5394 32.1574C46.4028 32.1155 48.6774 30.1217 48.616 25.8967C48.535 20.3955 44.0027 19.0439 43.3161 19.0551Z" fill="#1976D2"/>
<path d="M13.0196 29.5965C15.8242 29.4001 17.8825 26.1617 17.6169 22.3632C17.3513 18.5646 14.8624 15.6445 12.0578 15.8408C9.25322 16.0371 7.19497 19.2756 7.46057 23.0741C7.72617 26.8726 10.215 29.7928 13.0196 29.5965Z" fill="#1976D2"/>
<path d="M40.6927 34.9164C38.2395 32.7578 36.1575 31.0013 32.9033 26.4747C31.2902 24.2379 29.4343 23.9503 27.4918 23.9503C25.5466 23.9503 23.4981 24.6345 21.924 26.8964C20.35 29.1583 18.5638 31.3699 15.0948 34.2657C11.6285 37.1615 10.1577 39.161 10.1577 42.107C10.1577 45.0531 11.8378 49.9483 16.6186 49.9483C21.3994 49.9483 23.7102 48.8955 27.4918 48.8955C31.2735 48.8955 33.7936 50.3672 38.5744 50.3672C43.3552 50.3672 45.3507 45.8406 45.3507 42.8945C45.3507 39.9484 44.5218 38.2785 40.6927 34.9164Z" fill="#1976D2"/>
</svg>
