<svg width="56.000000" height="56.000000" viewBox="0 0 56 56" fill="none" xmlns="http://www.w3.org/2000/svg" xmlns:xlink="http://www.w3.org/1999/xlink">
	<circle cx="28.000000" cy="28.000000" r="21.765627" fill="#FFF4DA"/>
	<path d="M14.3473 33.2117Q16.0789 35.0483 19.38 35.0483Q20.9256 35.0483 22.0943 34.7382Q23.2678 34.4234 23.9118 34.0322L23.0722 31.5898Q22.8194 31.7091 22.5045 31.8474Q22.1945 31.981 21.7842 32.0907Q21.374 32.1956 20.8445 32.2767Q20.3197 32.3531 19.6519 32.3531Q18.5977 32.3531 17.8535 32.0144Q17.1141 31.6709 16.6514 31.0842Q16.1934 30.4974 15.9883 29.6865Q15.7832 28.8755 15.7832 27.9358Q15.7832 26.7671 16.0933 25.9466Q16.4081 25.1261 16.9281 24.6061Q17.448 24.0862 18.1206 23.8524Q18.7932 23.6187 19.4992 23.6187Q20.5535 23.6187 21.3835 23.8524Q22.2135 24.0862 22.8384 24.4201L23.7162 21.9586Q23.5635 21.8632 23.2105 21.6867Q22.8575 21.5102 22.328 21.3432Q21.8033 21.1763 21.0973 21.0523Q20.3961 20.9235 19.5374 20.9235Q18.0491 20.9235 16.7802 21.3957Q15.5113 21.8632 14.5906 22.7696Q13.6747 23.6759 13.1452 24.9973Q12.6205 26.3139 12.6205 27.9978Q12.6205 31.3752 14.3473 33.2117ZM28.9117 21.2335L25.8635 21.2335L25.8635 34.7764L28.9117 34.7764L28.9117 21.2335ZM34.8689 34.6476Q35.9041 35.0483 37.3304 35.0483Q38.7758 35.0483 39.83 34.6619Q40.8842 34.2707 41.5664 33.5552Q42.2533 32.8396 42.5825 31.8474Q42.9164 30.8504 42.9164 29.6578L42.9164 21.2335L39.8682 21.2335L39.8682 29.405Q39.8682 31.046 39.1717 31.7282Q38.48 32.4103 37.3685 32.4103Q36.82 32.4103 36.362 32.2577Q35.9041 32.1002 35.5797 31.7377Q35.2601 31.3752 35.074 30.8027Q34.888 30.2255 34.888 29.405L34.888 21.2335L31.8398 21.2335L31.8398 29.6578Q31.8398 30.8504 32.1594 31.8379Q32.4838 32.8205 33.1564 33.5361Q33.8338 34.2469 34.8689 34.6476Z" fill="#F83030"/>
	<defs/>
</svg>
