<svg width="32.000000" height="32.000000" viewBox="0 0 32 32" fill="none" xmlns="http://www.w3.org/2000/svg" xmlns:xlink="http://www.w3.org/1999/xlink">
	<desc>
			Created with Pixso.
	</desc>
	<g clip-path="url(#clip6_1)">
		<path d="M26.3682 5.63281C25.7744 5.03882 24.8408 5.03882 24.2471 5.63281L5.63379 24.2461C5.04004 24.8401 5.04004 25.7734 5.63379 26.3674C6.22754 26.9614 7.16113 26.9614 7.75488 26.3674L26.3682 7.75391C26.9619 7.16016 26.9619 6.22656 26.3682 5.63281Z" fill-rule="evenodd" fill="#929292"/>
		<path d="M26.3682 26.3672C26.9619 25.7734 26.9619 24.8398 26.3682 24.2461L7.75488 5.63257C7.16113 5.03857 6.22754 5.03857 5.63379 5.63257C5.04004 6.22656 5.04004 7.15991 5.63379 7.75391L24.2471 26.3672C24.8408 26.9612 25.7744 26.9612 26.3682 26.3672Z" fill-rule="evenodd" fill="#929292"/>
	</g>
	<defs>
		<clipPath id="clip6_1">
			<rect width="32.000000" height="32.000000" fill="white"/>
		</clipPath>
	</defs>
</svg>
