<svg width="56.000000" height="56.000000" viewBox="0 0 56 56" fill="none" xmlns="http://www.w3.org/2000/svg" xmlns:xlink="http://www.w3.org/1999/xlink">
	<desc>
			Created with Pixso.
	</desc>
	<rect width="56.000000" height="56.000000" />
	<g clip-path="url(#clip3_93)">
		<path d="M5.85156 5.85156L50.1484 5.85156L50.1484 50.1484L5.85156 50.1484L5.85156 5.85156Z" fill="#FF6633"/>
		<path d="M36.0879 7.68555C29.2148 6.27686 23.5625 9.0387 22.0332 9.78735C17.9355 11.7896 15.6426 14.4718 14.4844 15.8561C13.3613 17.1982 10.9062 20.4386 9.80078 25.1938C8.86328 29.2227 9.33594 32.4519 9.53906 33.5969C10.0352 36.3788 10.9785 41.6812 16.0469 45.5017C21.7773 49.8229 28.7422 49.2028 30.8828 49.0034C35.5234 48.5693 43.4062 46.525 43.8984 42.7C44.1211 40.9724 42.8418 38.8306 41.0332 38.2659C38.1953 37.3777 36.3477 41.0144 31.1426 41.7675C30.7734 41.8207 25.668 42.4895 21.7715 39.6656C17.1914 36.3478 17.4902 30.5249 17.6074 28.2281C17.6738 26.9059 17.8496 24.1816 19.6895 21.2249C20.3301 20.1971 22.2988 17.134 26.459 15.3887C27.5527 14.9303 29.7832 14.0221 32.707 14.2214C35.7363 14.4275 37.9395 15.7144 38.9551 16.3234C42.2344 18.288 42.6973 20.2192 44.1621 20.0576C45.7148 19.8871 47.1895 17.4928 47.0254 15.3887C46.7031 11.3312 40.2949 8.54932 36.0879 7.68555Z" fill="#FFFFFF"/>
	</g>
	<defs>
		<clipPath id="clip3_93">
			<rect width="44.296875" height="44.296875" transform="translate(5.851562 5.851562)" fill="white"/>
		</clipPath>
	</defs>
</svg>
