<svg width="100" height="100" viewBox="0 0 100 100" fill="none" xmlns="http://www.w3.org/2000/svg">
<g clip-path="url(#clip0_211_12)">
<path d="M17 29.9754V62.5309C17 64.222 17.8868 65.7722 19.3337 66.6178L47.3378 82.8721C48.7846 83.7177 50.5583 83.7177 52.0051 82.8721L80.0092 66.6178C81.4561 65.7722 82.3429 64.222 82.3429 62.5309V29.9754C82.3429 28.2842 81.4561 26.7339 80.0092 25.8884L52.0051 9.6342C50.5583 8.7886 48.7846 8.7886 47.3378 9.6342L19.3337 25.9354C17.8868 26.7809 17 28.3312 17 29.9754Z" fill="#0F2B46"/>
<path d="M61.3396 90.9997L61.293 83.9531L61.3396 77.4702L45.0039 81.5102" fill="#0F2B46"/>
<path d="M60.5928 76.9065L63.6733 76.1079L62.5063 76.7656C61.8063 77.1884 61.3396 77.94 61.3396 78.7856V80.101L60.5928 76.9065Z" fill="#142C46"/>
<path d="M38.3746 31.4331C40.2415 29.6011 43.2286 29.6011 45.0956 31.4331C47.1025 33.3592 47.1025 36.5537 45.0956 38.4798C43.2286 40.3119 40.2415 40.3119 38.3746 38.4798C36.3676 36.5537 36.3676 33.3592 38.3746 31.4331Z" fill="white"/>
<path d="M59.3778 43.6935C61.2447 41.8613 64.2318 41.8613 66.0988 43.6935C68.1057 45.6196 68.1057 48.8139 66.0988 50.74C64.2318 52.5722 61.2447 52.5722 59.3778 50.74C57.3708 48.8139 57.3708 45.6196 59.3778 43.6935Z" fill="white"/>
<path d="M38.3746 56.6602C40.2415 54.8281 43.2286 54.8281 45.0956 56.6602C47.1025 58.5863 47.1025 61.7808 45.0956 63.7069C43.2286 65.5389 40.2415 65.5389 38.3746 63.7069C36.3676 61.7808 36.3676 58.5863 38.3746 56.6602Z" fill="white"/>
<path d="M44.0696 37.5865L58.0716 45.7136L60.4053 44.3982L46.4032 36.2241L44.0696 37.5865Z" fill="white"/>
<path d="M59.0051 51.6792L46.4032 59.0077L44.0696 57.6454L56.6714 50.3638L59.0051 51.6792Z" fill="white"/>
</g>
<defs>
<clipPath id="clip0_211_12">
<rect width="100" height="100" fill="white"/>
</clipPath>
</defs>
</svg>
