<svg width="100" height="100" viewBox="0 0 100 100" fill="none" xmlns="http://www.w3.org/2000/svg">
<g clip-path="url(#clip0_535_6)">
<path fill-rule="evenodd" clip-rule="evenodd" d="M66.8534 12C71.0587 12 72.4498 13.6178 72.4498 17.5963V22.2574C72.4498 26.2359 70.8317 27.8537 66.8534 27.8537H59.7668C47.4597 27.8537 43.913 31.4004 43.913 43.7074L43.9127 45.2911L61.245 45.2928C65.2237 45.2928 66.8414 46.9105 66.8414 50.8892V53.172C66.8414 57.1507 65.2237 58.7684 61.245 58.7684L43.9127 58.7664L43.913 82.5013C43.913 86.5758 42.2639 88.0977 38.3167 88.0977H33.6557C29.6771 88.0977 27.6158 86.1319 28.0593 82.5013V43.7074C28.0593 20.2666 36.3259 12 59.7668 12H66.8534Z" fill="#1973E8"/>
</g>
<defs>
<clipPath id="clip0_535_6">
<rect width="100" height="100" fill="white"/>
</clipPath>
</defs>
</svg>
