<svg width="56.000000" height="56.000000" viewBox="0 0 56 56" fill="none" xmlns="http://www.w3.org/2000/svg" xmlns:xlink="http://www.w3.org/1999/xlink">
	<desc>
			Created with Pixso.
	</desc>
	<path d="M4.67578 28.5908C4.67578 38.6348 11.1152 47.1719 20.0859 50.3076C21.293 50.6104 21.1074 49.752 21.1074 49.166L21.1074 45.1826C14.1328 46 13.8496 41.3848 13.3828 40.6133C12.4375 38.999 10.2012 38.5879 10.8691 37.8174C12.457 37 14.0762 38.0225 15.9531 40.793C17.3105 42.8027 19.957 42.4639 21.2988 42.1299C21.5918 40.9219 22.2188 39.8428 23.082 39.0049C15.8555 37.709 12.8438 33.2988 12.8438 28.0566C12.8438 25.5127 13.6816 23.1738 15.3262 21.2871C14.2773 18.1777 15.4238 15.5156 15.5781 15.1191C18.5645 14.8525 21.668 17.2578 21.9102 17.4482C23.6055 16.9902 25.543 16.749 27.7129 16.749C29.8926 16.749 31.8359 17.001 33.5469 17.4629C34.127 17.0215 37.0059 14.9551 39.7812 15.207C39.9297 15.6025 41.0508 18.2031 40.0645 21.2715C41.7285 23.1631 42.5781 25.5225 42.5781 28.0723C42.5781 33.3252 39.5449 37.7402 32.2969 39.0146C32.918 39.625 33.4121 40.3535 33.748 41.1562C34.084 41.96 34.2559 42.8213 34.2559 43.6924L34.2559 49.4746C34.2969 49.9375 34.2559 50.3945 35.0273 50.3945C44.1289 47.3262 50.6836 38.7266 50.6836 28.5967C50.6836 15.8906 40.3828 5.60547 27.6816 5.60547C14.9707 5.60059 4.67578 15.8906 4.67578 28.5908Z" fill-rule="evenodd" fill="#000000" fill-opacity="0.900000"/>
	<defs/>
</svg>
