<svg width="78.947266" height="78.947266" viewBox="0 0 78.9473 78.9473" fill="none" xmlns="http://www.w3.org/2000/svg" xmlns:xlink="http://www.w3.org/1999/xlink">
	<desc>
			Created with Pixso.
	</desc>
	<path d="M21.2275 41.5669L51.9932 41.8403L39.4404 54.3926C39.2168 54.6118 39.0381 54.8735 38.916 55.1621C38.793 55.4512 38.7295 55.7612 38.7275 56.0747C38.7256 56.3887 38.7861 56.6997 38.9053 56.9897C39.0244 57.2798 39.2002 57.5435 39.4219 57.7651C39.6445 57.9868 39.9082 58.1626 40.1982 58.2817C40.4883 58.4009 40.7988 58.4614 41.1123 58.4595C41.4258 58.4575 41.7363 58.3936 42.0254 58.271C42.3135 58.1489 42.5752 57.9702 42.7949 57.7461L59.3955 41.1455C59.8398 40.7007 60.0898 40.0977 60.0898 39.4688C60.0898 38.8398 59.8398 38.2368 59.3955 37.7925L42.7949 21.1919C42.5752 20.9712 42.3135 20.7964 42.0254 20.6772C41.7373 20.5576 41.4287 20.4966 41.1172 20.4971C40.6484 20.4971 40.1904 20.6362 39.7998 20.897C39.4102 21.1577 39.1064 21.5278 38.9268 21.9609C38.748 22.3945 38.7002 22.8711 38.792 23.3311C38.8838 23.791 39.1094 24.2134 39.4404 24.5454L51.9932 37.0977L21.2275 36.8237C20.5986 36.8237 19.9961 37.0737 19.5508 37.5186C19.1064 37.9629 18.8564 38.5664 18.8564 39.1953C18.8564 39.8242 19.1064 40.4272 19.5508 40.8721C19.9961 41.3169 20.5986 41.5669 21.2275 41.5669Z" fill-rule="evenodd" fill="url(#paint_linear_7_30_0)"/>
	<defs>
		<linearGradient id="paint_linear_7_30_0" x1="60.090816" y1="39.473621" x2="18.856430" y2="39.473621" gradientUnits="userSpaceOnUse">
			<stop stop-color="#D200F4"/>
			<stop offset="1.000000" stop-color="#0036F4"/>
		</linearGradient>
	</defs>
</svg>
