<svg width="48" height="48" viewBox="0 0 48 48" fill="none" xmlns="http://www.w3.org/2000/svg">
<path d="M24.05 44L22 38H8C6.83333 38 5.875 37.625 5.125 36.875C4.375 36.125 4 35.1667 4 34V8C4 6.83333 4.375 5.875 5.125 5.125C5.875 4.375 6.83333 4 8 4H20L21.75 9.95H40C41.1667 9.95 42.125 10.325 42.875 11.075C43.625 11.825 44 12.7833 44 13.95V40C44 41.1667 43.625 42.125 42.875 42.875C42.125 43.625 41.1667 44 40 44H24.05ZM14.35 29.2C16.65 29.2 18.5333 28.45 20 26.95C21.4667 25.45 22.2 23.5167 22.2 21.15V20.375C22.2 20.1583 22.1667 19.9667 22.1 19.8H14.15V22.85H18.65C18.3833 23.8167 17.875 24.5667 17.125 25.1C16.375 25.6333 15.4667 25.9 14.4 25.9C13.1 25.9 11.9833 25.425 11.05 24.475C10.1167 23.525 9.65 22.3667 9.65 21C9.65 19.6333 10.1167 18.475 11.05 17.525C11.9833 16.575 13.1 16.1 14.4 16.1C15 16.1 15.5583 16.2083 16.075 16.425C16.5917 16.6417 17.0667 16.9667 17.5 17.4L19.95 15.1C19.2833 14.3667 18.45 13.8 17.45 13.4C16.45 13 15.4167 12.8 14.35 12.8C12.0833 12.8 10.1583 13.6 8.575 15.2C6.99167 16.8 6.2 18.7333 6.2 21C6.2 23.2667 6.99167 25.2 8.575 26.8C10.1583 28.4 12.0833 29.2 14.35 29.2ZM27.7 30.15L28.85 29.1C28.3833 28.5333 27.95 27.9917 27.55 27.475C27.15 26.9583 26.7667 26.4 26.4 25.8L27.7 30.15ZM30.2 27.6C31.1667 26.5 31.8917 25.45 32.375 24.45C32.8583 23.45 33.1833 22.6667 33.35 22.1H25.4L25.95 24.25H27.95C28.2167 24.75 28.5333 25.2833 28.9 25.85C29.2667 26.4167 29.7 27 30.2 27.6ZM26.05 42H40C40.5667 42 41.0417 41.8083 41.425 41.425C41.8083 41.0417 42 40.5667 42 40V13.95C42 13.3833 41.8083 12.9083 41.425 12.525C41.0417 12.1417 40.5667 11.95 40 11.95H22.4L24.7 20.1H28.65V17.95H30.7V20.1H38.05V22.1H35.45C35.15 23.3667 34.6667 24.6 34 25.8C33.3333 27 32.55 28.1167 31.65 29.15L37.1 34.55L35.65 36L30.2 30.6L28.4 32.4L30.05 38L26.05 42Z" fill="#2382D9"/>
</svg>
