<svg width="56" height="56" viewBox="0 0 56 56" fill="none" xmlns="http://www.w3.org/2000/svg">
<path d="M48.3707 27.4797C48.3707 25.685 48.2251 24.3754 47.9099 23.0173H27.417V31.1174H39.4459C39.2034 33.1304 37.8938 36.1619 34.9835 38.1989L34.9427 38.4701L41.4222 43.4897L41.8711 43.5345C45.9939 39.7269 48.3707 34.1247 48.3707 27.4797Z" fill="#4285F4"/>
<path d="M27.4166 48.8214C33.3097 48.8214 38.2571 46.8812 41.8707 43.5345L34.9831 38.1989C33.14 39.4843 30.6663 40.3816 27.4166 40.3816C21.6447 40.3816 16.7458 36.5742 14.9995 31.3115L14.7435 31.3333L8.00608 36.5474L7.91797 36.7924C11.5072 43.9224 18.8798 48.8214 27.4166 48.8214Z" fill="#34A853"/>
<path d="M14.9995 31.3115C14.5387 29.9534 14.2721 28.4982 14.2721 26.9946C14.2721 25.4909 14.5387 24.0358 14.9753 22.6778L14.9631 22.3885L8.14117 17.0906L7.91798 17.1967C6.43867 20.1555 5.58984 23.4781 5.58984 26.9946C5.58984 30.5111 6.43867 33.8336 7.91798 36.7923L14.9995 31.3115Z" fill="#FBBC05"/>
<path d="M27.4166 13.6076C31.5151 13.6076 34.2798 15.378 35.8562 16.8574L42.0162 10.8429C38.233 7.3264 33.3097 5.16797 27.4166 5.16797C18.8798 5.16797 11.5072 10.0668 7.91797 17.1968L14.9753 22.6779C16.7458 17.4152 21.6447 13.6076 27.4166 13.6076Z" fill="#EB4335"/>
</svg>
