<svg width="56.000000" height="56.000000" viewBox="0 0 56 56" fill="none" xmlns="http://www.w3.org/2000/svg" xmlns:xlink="http://www.w3.org/1999/xlink">
	<desc>
			Created with Pixso.
	</desc>
	<path d="M27.998 17.6757L34.0195 12.8643L27.998 8.01001L27.9941 8L21.9824 12.8542L27.9941 17.6686L27.998 17.6757ZM27.998 32.85L28.002 32.85L43.5312 20.5358L39.3203 17.1357L28.002 26.1157L27.9961 26.1157L27.9922 26.1215L16.6738 17.1443L12.4668 20.5443L27.9902 32.8542L27.9961 32.8486L27.998 32.85ZM27.9922 41.27L27.998 41.2643L48.7871 24.7786L53 28.1786L27.9961 48L3.4043 28.51L3 28.1857L7.20703 24.7914L27.9922 41.2715L27.9922 41.27Z" fill-rule="evenodd" fill="#1E80FF"/>
	<defs/>
</svg>
