<svg width="56.000000" height="56.000000" viewBox="0 0 56 56" fill="none" xmlns="http://www.w3.org/2000/svg" xmlns:xlink="http://www.w3.org/1999/xlink">
	<desc>
			Created with Pixso.
	</desc>
	<rect width="56.000000" height="55.999992" />
	<g clip-path="url(#clip3_75)">
		<path d="M6.89062 6.5625L49.1641 6.5625L49.1641 48.8359L6.89062 48.8359L6.89062 6.5625Z" fill="#009966"/>
		<path d="M46.9629 7.64258C48.8477 8.22595 48.8477 8.27466 47.9414 10.8469C46.7949 14.0513 47.0566 13.7363 45.9141 13.3474C44.8633 12.9585 43.623 12.8866 42.9551 13.1296C42.2148 13.4214 41.8086 14.7319 41.6914 17.1605C41.6426 18.4476 41.6426 19.7836 41.7402 20.1239C41.8828 20.7559 41.9062 20.7559 44.3887 20.7559L46.8926 20.7559L46.8926 26.5853L41.7402 26.5853L41.834 37.27L41.9297 47.9546L37.9219 47.906L33.8887 47.8341L33.9844 37.198L34.0566 26.5853L30.6699 26.5853L30.6699 20.7559L34.0098 20.7559L33.9609 17.2831C33.9375 14.5881 34.0098 13.5187 34.3438 12.4026C35.1309 9.65906 36.8027 8.0083 39.4727 7.23047C41.0469 6.76965 44.9336 6.98743 46.9629 7.64258L46.9629 7.64258ZM23.5098 20.6354C25.7754 21.3392 27.3262 22.189 27.3262 22.7236C27.3262 23.307 25.2266 27.6295 24.9883 27.507C24.4902 27.2526 23.9883 27.0018 23.4863 26.7544C20.8867 25.444 17.7832 25.37 16.5684 26.6086C16.0664 27.118 15.9492 28.5024 16.3516 29.2803C16.6621 29.8383 17.8789 30.4935 20.4551 31.4658C24.416 32.9475 26.4668 34.4524 27.4219 36.5408C27.8281 37.4158 27.9219 38.0944 27.9219 39.9396C27.9219 42.8776 27.3496 44.2852 25.5137 45.9867C21.7676 49.4595 14.0605 49.5082 8.78906 46.1072C8.09766 45.6465 7.52539 45.1117 7.52539 44.8939C7.52539 44.5304 9.19531 41.2035 9.74414 40.4996C9.91211 40.2566 10.1738 40.3538 10.8418 40.8885C12.1055 41.884 14.0371 42.8311 15.4707 43.1227C17.9746 43.6321 20.1719 42.3934 20.1719 40.4764C20.1719 39.1406 19.2871 38.2909 17.0449 37.4158C10.6289 34.8899 8.43164 32.6326 8.38477 28.5764C8.33789 24.2772 10.5801 21.5083 14.9922 20.3669C16.6855 19.9315 21.7676 20.0774 23.5098 20.6354Z" fill="#FFFFFF"/>
	</g>
	<defs>
		<clipPath id="clip3_75">
			<rect width="42.273430" height="42.273430" transform="translate(6.890625 6.562500)" fill="white"/>
		</clipPath>
	</defs>
</svg>
