<svg width="78.949219" height="78.947510" viewBox="0 0 78.9492 78.9475" fill="none" xmlns="http://www.w3.org/2000/svg" xmlns:xlink="http://www.w3.org/1999/xlink">
	<desc>
			Created with Pixso.
	</desc>
	<path d="M46.0957 56.1277L25.3027 56.1371L25.3008 52.3552L46.0918 52.3459L46.0957 56.1277ZM60.1465 34.7139L56.5879 17.2706L52.2148 17.9171L55.7715 35.3595L60.1465 34.7148L60.1465 34.7139ZM46.5957 47.4982L25.8906 45.8734L25.4844 49.6394L46.1875 51.2622L46.5957 47.4972L46.5957 47.4982ZM47.9609 42.5635L27.8828 37.9669L26.7285 41.6199L46.8086 46.2155L47.9609 42.5635L47.9609 42.5635ZM50.584 38.2379L32.6738 29.2439L30.416 32.5007L48.3262 41.4946L50.582 38.2388L50.584 38.2379ZM54.9746 35.5902L43.2598 20.9628L39.5898 23.0929L51.3066 37.7194L54.9746 35.5894L54.9746 35.5902Z" fill-rule="evenodd" fill="#FF810F"/>
	<path d="M49.627 43.6892L49.627 59.1472L22.3555 59.1472L22.3555 43.6892L18.8027 43.6892L18.8027 62.1144L53.1621 62.1144L53.1621 43.6892L49.627 43.6892Z" fill-rule="evenodd" fill="#BEBCBC"/>
	<defs/>
</svg>
