<svg width="100" height="102" viewBox="0 0 100 102" fill="none" xmlns="http://www.w3.org/2000/svg">
<g clip-path="url(#clip0_238_4)">
<path d="M11.3776 28.8719V26.729H12.0663L17.0409 26.8821C19.8981 26.9331 23.0869 26.9331 26.6073 26.8821L32.7298 26.729H33.5717V28.8719V31.0148H32.3472C28.9798 31.0148 27.2451 31.2188 27.1431 31.627C27.092 31.678 27.9084 34.3566 29.5921 39.6628L35.1023 57.0355L38.0871 66.4488L47.2708 37.4434L46.3525 34.5352C45.6892 32.4944 45.1535 31.3974 44.7453 31.2444C44.2861 31.0913 42.8575 31.0148 40.4595 31.0148H38.6993V28.8719V26.729H39.3881L44.3626 26.8821C47.2198 26.9331 50.4086 26.9331 53.9291 26.8821L60.0516 26.729H60.8934V28.8719V31.0148H59.6689C56.3015 31.0148 54.5668 31.2188 54.4648 31.627L65.4088 66.4488L75.7405 33.6168C75.7405 32.5964 74.6181 31.8311 72.3732 31.3209C71.8629 31.2189 71.3527 31.1423 70.8425 31.0913C70.5364 31.0403 70.1282 31.0148 69.618 31.0148H69.1588V28.8719V26.729H69.8476C69.7966 26.729 71.5568 26.78 75.1283 26.8821C78.1895 26.9331 80.8171 26.9331 83.011 26.8821L86.7611 26.729H87.2203V28.8719V31.0148H86.0723C82.5008 31.1678 80.409 32.1372 79.7967 33.923L72.4497 57.112C67.6027 72.3673 65.1282 80.0459 65.0261 80.148C64.8731 80.5051 64.1843 80.6837 62.9598 80.6837C61.7863 80.6837 61.072 80.5051 60.8169 80.148C60.7149 79.9949 58.7761 73.8979 55.0005 61.8569L49.3372 43.7955L43.5973 61.9335C39.8728 73.6683 37.9085 79.7653 37.7044 80.2245C37.5513 80.3776 37.4238 80.4796 37.3217 80.5306C37.1687 80.6327 36.6074 80.6837 35.638 80.6837C34.4646 80.6837 33.7758 80.5051 33.5717 80.148C33.4697 80.0459 30.8676 71.9336 25.7655 55.811C20.7144 39.8414 18.0613 31.7035 17.8062 31.3974C17.7552 31.3464 17.6276 31.2954 17.4236 31.2444C16.9644 31.0913 15.5358 31.0148 13.1378 31.0148H11.3776V28.8719Z" fill="black"/>
</g>
<defs>
<clipPath id="clip0_238_4">
<rect width="100" height="102" fill="white"/>
</clipPath>
</defs>
</svg>
