<svg width="56.000000" height="56.000000" viewBox="0 0 56 56" xmlns="http://www.w3.org/2000/svg" xmlns:xlink="http://www.w3.org/1999/xlink">
	<desc>
			Created with Pixso.
	</desc>
	<path d="M20.1797 30.0135L29.6484 30.0135C29.6484 27.8049 28.5977 26.5112 28.5977 26.5112L20.3809 26.5112C20.5762 22.5103 20.752 17.3754 20.8145 15.468L28.6289 15.468C28.6289 15.468 28.5879 12.1866 27.7188 12.1866L13.9805 12.1866C13.9805 12.1866 14.8066 7.89563 15.9102 6.00122C15.9102 6.00122 11.8066 5.78162 10.4082 11.2085C9.00977 16.6355 6.91016 19.9169 6.6875 20.5164C6.46484 21.1158 7.89648 20.8003 8.5 20.5164C9.10352 20.2324 11.8398 19.2543 12.6348 15.468L16.8828 15.468C16.9395 17.8676 17.1074 25.2212 17.0547 26.5112L8.30859 26.5112C7.06836 27.3948 6.65625 30.0135 6.65625 30.0135L16.6504 30.0135C16.2344 32.7523 15.502 36.2822 14.4785 38.1539C12.8574 41.1199 11.998 43.8334 6.14648 48.5031C6.14648 48.5031 5.19336 49.1971 8.15039 48.9447C11.1074 48.6923 13.9062 47.9351 15.8457 44.0858C16.8535 42.0845 17.8965 39.5459 18.7109 36.9712L18.709 36.9802L26.9453 46.389C26.9453 46.389 28.0254 43.8649 27.2305 41.0883L21.125 34.3046L19.0586 35.8215L19.0566 35.8289C19.6289 33.8318 20.043 31.8575 20.1699 30.1398C20.1738 30.0984 20.1777 30.0562 20.1797 30.0135ZM31.6191 44.0542L31.6191 11.4926L50 11.4926L50 44.0542L42.4629 44.0542L36.4824 47.9739L35.0703 44.0542L31.6191 44.0542ZM42.5312 40.5519L46.4492 40.5519L46.4492 15.1262L35.2715 15.1262L35.2715 40.5519L36.4902 40.5519L37.6445 43.7544L42.5312 40.5519Z" fill-rule="evenodd" fill="#0061F2"/>
	<defs/>
</svg>
